<svg width="200mm" height="200mm" version="1.1" viewBox="0 0 200 200" xmlns="http://www.w3.org/2000/svg" xmlns:xlink="http://www.w3.org/1999/xlink"><rect width="200" height="200" fill="#fff" stroke-width="1.5"/><path d="m100 11 4 7h-8z"/><circle cx="100" cy="100" r="72" fill="none" stroke="#000" stroke-width=".5"/>
 <g id="d">
 <g id="g">
 <g id="e"><path d="m172 100-6-3v6z"/><path d="m100 100h67" fill="none" stroke="#000"/><rect x="159.5" y="95" width="5.5" height="10" fill="#fff" stroke="#000" stroke-width=".1"/></g>
 <use transform="rotate(11.25 100 100)" xlink:href="#e"/><use transform="rotate(22.5 100 100)" xlink:href="#e"/><use transform="rotate(33.75 100 100)" xlink:href="#e"/></g>
 <use transform="rotate(45 100 100)" xlink:href="#g"/></g>
 <use transform="rotate(90 100 100)" xlink:href="#d"/><use transform="rotate(180 100 100)" xlink:href="#d"/><use transform="rotate(-90 100 100)" xlink:href="#d"/><path d="m100 28-8 15h16z"/><path d="m100 43v52" stroke="#000" stroke-width="3"/>
 <g id="b">
 <g id="c"><path d="m100 5.297v-3.287" fill="none" stroke="#000"/><path d="m101.7 5.3.06-3.25m1.6 3.3.1-3.25m1.52 3.35.2-3.3m1.46 3.4.24-3.3m1.44 3.41.26-3.27m1.36 3.41.37-3.25m1.28 3.45.4-3.25m1.24 3.45.45-3.21m1.186 3.473.5-3.2" fill="none" stroke="#000" stroke-width=".1"/></g>
 <use transform="rotate(10 100 100)" xlink:href="#c"/><use transform="rotate(20 100 100)" xlink:href="#c"/><use transform="rotate(30 100 100)" xlink:href="#c"/><use transform="rotate(40 100 100)" xlink:href="#c"/><use transform="rotate(50 100 100)" xlink:href="#c"/></g>
 <use transform="rotate(60 100 100)" xlink:href="#b"/><use transform="rotate(120 100 100)" xlink:href="#b"/><use transform="rotate(180 100 100)" xlink:href="#b"/><use transform="rotate(240 100 100)" xlink:href="#b"/><use transform="rotate(-60 100 100)" xlink:href="#b"/>
 <g id="a"><path id="f" d="m180.8 114.2 6.5 3.3-7.3.6m.8-3.9-.8 3.9-9.8-2 .8-3.9z" fill="#fff" stroke="#000" stroke-width=".1"/><use transform="rotate(11.25 99 100)" xlink:href="#f"/><use transform="rotate(22.5 99 100)" xlink:href="#f"/><path d="m182 104h-10v-8h10m7 4-7 4v-8z" fill="none" stroke="#000" stroke-width=".1"/></g>
 <circle cx="100" cy="100" r="5" fill="#fff"/><use transform="rotate(45 100.3 100.5)" xlink:href="#a"/><use transform="rotate(90 100 100)" xlink:href="#a"/><use transform="rotate(135 100 100)" xlink:href="#a"/><use transform="rotate(180 100 100)" xlink:href="#a"/><use transform="rotate(225 100 100)" xlink:href="#a"/><use transform="rotate(-90 100 100)" xlink:href="#a"/><use transform="rotate(-45 100 100)" xlink:href="#a"/>
 <g stroke="#000"><circle cx="100" cy="100" r="98" fill="none" stroke-width=".5"/><circle cx="100" cy="100" r="94.7" fill="none" stroke-width=".5"/><path d="m100 96v8m-4-4h8" fill="#fff" stroke-dasharray=".5" stroke-width=".3"/></g>
 <g font-family="Arial" text-anchor="middle">
 <g font-size="4.6px"><text x="100" y="9.3">0°</text><text transform="rotate(10)" x="115.8" y="-9.6">10°</text><text transform="rotate(20)" x="128.2" y="-30.9">20°</text><text transform="rotate(30)" x="136.6" y="-54.1">30°</text><text transform="rotate(40)" x="140.9" y="-78.4">40°</text><text transform="rotate(50)" x="140.9" y="-103">50°</text><text transform="rotate(60)" x="136.6" y="-127.3">60°</text><text transform="rotate(70)" x="128.2" y="-150.5">70°</text><text transform="rotate(80)" x="115.8" y="-171.8">80°</text><text transform="rotate(90)" x="100" y="-190.7">90°</text><text transform="rotate(100)" x="81.1" y="-206.6">100°</text><text transform="rotate(110)" x="59.8" y="-218.9">110°</text><text transform="rotate(120)" x="36.6" y="-227.3">120°</text><text transform="rotate(130)" x="12.3" y="-231.6">130°</text><text transform="rotate(140)" x="-12.3" y="-231.6">140°</text><text transform="rotate(150)" x="-36.6" y="-227.3">150°</text><text transform="rotate(160)" x="-59.8" y="-218.9">160°</text><text transform="rotate(170)" x="-81.1" y="-206.6">170°</text><text transform="scale(-1)" x="-100" y="-190.7">180°</text><text transform="rotate(190)" x="-115.8" y="-171.8">190°</text><text transform="rotate(200)" x="-128.2" y="-150.5">200°</text><text transform="rotate(210)" x="-136.6" y="-127.3">210°</text><text transform="rotate(220)" x="-140.9" y="-103">220°</text><text transform="rotate(230)" x="-140.9" y="-78.4">230°</text><text transform="rotate(240)" x="-136.6" y="-54.1">240°</text><text transform="rotate(250)" x="-128.2" y="-30.9">250°</text><text transform="rotate(260)" x="-115.8" y="-9.6">260°</text><text transform="rotate(-90)" x="-100" y="9.3">270°</text><text transform="rotate(-80)" x="-81.1" y="25.1">280°</text><text transform="rotate(-70)" x="-59.8" y="37.5">290°</text><text transform="rotate(-60)" x="-36.6" y="45.9">300°</text><text transform="rotate(-50)" x="-12.3" y="50.2">310°</text><text transform="rotate(-40)" x="12.3" y="50.2">320°</text><text transform="rotate(-30)" x="36.6" y="45.9">330°</text><text transform="rotate(-20)" x="59.8" y="37.5">340°</text><text transform="rotate(-10)" x="81.1" y="25.1">350°</text></g>
 <g font-size="6.4px" text-anchor="middle"><text transform="rotate(11.25)" x="117.6" y="18.6">2</text><text transform="rotate(22.5)" x="130.7" y="-5.9">3</text><text transform="rotate(33.75)" x="138.7" y="-32.4">4</text><text transform="rotate(45)" x="141.4" y="-60">5</text><text transform="rotate(56.25)" x="138.7" y="-87.6">6</text><text transform="rotate(67.5)" x="130.65" y="-114.1">7</text><text transform="rotate(78.75)" x="117.6" y="-138.60001">8</text><text transform="rotate(90)" x="100" y="-160">9</text><text transform="rotate(101.2)" x="78.6" y="-177.6">10</text><text transform="rotate(112.5)" x="54.1" y="-190.6">11</text><text transform="rotate(123.8)" x="27.6" y="-198.7">12</text><text transform="rotate(135)" y="-201.4">13</text><text transform="rotate(146.2)" x="-27.6" y="-198.7">14</text><text transform="rotate(157.5)" x="-54.1" y="-190.6">15</text><text transform="rotate(168.8)" x="-78.6" y="-177.6">16</text><text transform="scale(-1)" x="-100" y="-160">17</text><text transform="rotate(191.2)" x="-117.6" y="-138.6">18</text><text transform="rotate(202.5)" x="-130.6" y="-114.1">19</text><text transform="rotate(213.8)" x="-138.7" y="-87.6">20</text><text transform="rotate(225)" x="-141.4" y="-60">21</text><text transform="rotate(236.2)" x="-138.7" y="-32.4">22</text><text transform="rotate(247.5)" x="-130.6" y="-5.9">23</text><text transform="rotate(258.8)" x="-117.6" y="18.6">24</text><text transform="rotate(-90)" x="-100" y="40">25</text><text transform="rotate(-78.75)" x="-78.6" y="57.6">26</text><text transform="rotate(-67.5)" x="-54.1" y="70.7">27</text><text transform="rotate(-56.25)" x="-27.6" y="78.7">28</text><text transform="rotate(-45)" y="81.4">29</text><text transform="rotate(-33.75)" x="27.6" y="78.7">30</text><text transform="rotate(-22.5)" x="54.1" y="70.7">31</text><text transform="rotate(-11.25)" x="78.6" y="57.6">32</text></g>
 <g fill="#888" font-stretch="condensed" font-weight="bold" stroke="#000" stroke-width=".1"><text x="100" y="42" fill="#fff" font-size="14px">1</text>
 <g font-size="9.8px"><text x="100" y="26">N</text><text transform="rotate(90)" x="100" y="-174">E</text><text x="99.9" y="180.8">S</text><text transform="rotate(-90)" x="-100" y="26">W</text></g>
 <g font-size="7px"><text transform="rotate(-45)" x="77.3" y="143.9">NE</text><text transform="rotate(-45)" x="-77.3" y="144.1">SW</text><text transform="rotate(45)" x="64.3" y="2.7">NW</text><text transform="rotate(45)" x="218.9" y="2.4">SE</text></g>
 <g font-size="4.2px"><text transform="rotate(11.25)" x="195.7" y="80.1">EbS</text><text transform="rotate(22.5)" x="208.2" y="56">ESE</text><text transform="rotate(33.75)" x="215.9" y="29.6">SEbE</text><text transform="rotate(56.25)" x="216" y="-26.2">SEbS</text><text transform="rotate(67.5)" x="207.7" y="-52.7">SSE</text><text transform="rotate(78.75)" x="194.9" y="-77.1">EbE</text><text transform="rotate(-11.25)" x="156" y="119.5">EbN</text><text transform="rotate(-22.5)" x="131.3" y="132.4">ENE</text><text transform="rotate(-33.75)" x="104.7" y="140.2">NEbE</text><text transform="rotate(-56.25)" x="49.6" y="140.5">NEbN</text><text transform="rotate(-67.5)" x="23.1" y="132.4">NNE</text><text transform="rotate(-78.75)" x="-1.5" y="119">NbS</text><text transform="rotate(11.25)" x="40.2" y="80">WbN</text><text transform="rotate(-11.25)" x="1.2" y="118.6">WbS</text><text transform="rotate(-22.5)" x="-23" y="131.9">WSW</text><text transform="rotate(-33.75)" x="-49.9" y="140.1">SWbW</text><text transform="rotate(-56.25)" x="-104.7" y="139.7">SWbS</text><text transform="rotate(-67.5)" x="-131.3" y="131.8">SSW</text><text transform="rotate(-78.75)" x="-155.7" y="118.9">SbW</text><text transform="rotate(22.5)" x="53.7" y="55.3">WNW</text><text transform="rotate(33.75)" x="60.8" y="28.6">NWbW</text><text transform="rotate(56.25)" x="61.4" y="-26.1">NWbN</text><text transform="rotate(67.5)" x="53.7" y="-52.9">NNW</text><text transform="rotate(78.75)" x="40.4" y="-77.4">NbW</text></g></g></g>
 <path d="m106 38-4-8m-8 8 4-8" stroke="#fff" stroke-width="1.2"/>
</svg>
