<?xml version="1.0" encoding="UTF-8" standalone="no"?>
<!-- Created with Inkscape (http://www.inkscape.org/) -->

<svg
   xmlns:dc="http://purl.org/dc/elements/1.1/"
   xmlns:cc="http://creativecommons.org/ns#"
   xmlns:rdf="http://www.w3.org/1999/02/22-rdf-syntax-ns#"
   xmlns:svg="http://www.w3.org/2000/svg"
   xmlns="http://www.w3.org/2000/svg"
   version="1.1"
   width="665.4"
   height="665.4"
   id="svg2">
  <defs
     id="defs4" />
  <metadata
     id="metadata7">
    <rdf:RDF>
      <cc:Work
         rdf:about="">
        <dc:format>image/svg+xml</dc:format>
        <dc:type
           rdf:resource="http://purl.org/dc/dcmitype/StillImage" />
        <dc:title></dc:title>
      </cc:Work>
    </rdf:RDF>
  </metadata>
  <rect
     width="665.4"
     height="665.4"
     x="0"
     y="0"
     id="rect3009"
     style="color:#000000;fill:#000000;fill-opacity:1;fill-rule:nonzero;stroke:none;stroke-width:2;marker:none;visibility:visible;display:inline;overflow:visible;enable-background:accumulate" />
  <g
     transform="translate(11.5,8.5)"
     id="g3011">
    <path
       d="m 25.31,446.7 c 0.3,0.7 0.55,1.4 0.85,2.1 2.02,4.8 4.18,9.6 6.43,14.2 2.25,4.7 4.6,9.3 7.07,13.8 2.46,4.6 5.04,9 7.72,13.4 2.67,4.5 5.43,8.8 8.31,13 2.88,4.3 5.86,8.5 8.93,12.6 3.08,4.1 6.24,8.2 9.5,12.1 3.27,4 6.62,7.8 10.07,11.6 3.44,3.8 7,7.5 10.62,11.2 3.62,3.6 7.29,7.1 11.09,10.5 3.8,3.5 7.7,6.8 11.6,10.1 4,3.3 8,6.5 12.1,9.5 4.1,3.1 8.3,6.1 12.6,9 4.2,2.9 8.6,5.6 13,8.3 4.4,2.7 8.9,5.2 13.4,7.7 4.5,2.5 9.1,4.9 13.8,7.1 4.7,2.3 9.4,4.4 14.2,6.4 4.8,2 9.6,4 14.5,5.8 4.9,1.8 9.9,3.4 14.9,5 5,1.6 10.1,3 15.2,4.3 5.1,1.3 10.3,2.5 15.5,3.6 5.2,1.1 10.4,2 15.7,2.8 5.3,0.8 10.7,1.5 16.1,2 5.3,0.6 10.8,1 16.2,1.3 5.5,0.3 11,0.4 16.5,0.4 5.5,0 11,-0.1 16.5,-0.4 5.4,-0.3 10.9,-0.7 16.2,-1.3 5.4,-0.5 10.8,-1.2 16.1,-2 5.3,-0.8 10.5,-1.7 15.7,-2.8 5.2,-1.1 10.4,-2.3 15.5,-3.6 5.1,-1.3 10.2,-2.7 15.2,-4.3 5,-1.6 10,-3.2 14.9,-5 4.9,-1.8 9.7,-3.8 14.5,-5.8 4.8,-2 9.5,-4.1 14.2,-6.4 4.7,-2.2 9.3,-4.6 13.8,-7.1 4.5,-2.5 9,-5 13.4,-7.7 4.4,-2.7 8.8,-5.4 13,-8.3 4.3,-2.9 8.4,-5.9 12.6,-9 4.1,-3 8.1,-6.2 12.1,-9.5 3.9,-3.3 7.8,-6.6 11.6,-10.1 3.8,-3.4 7.5,-6.9 11.1,-10.5 3.6,-3.7 7.2,-7.4 10.6,-11.2 3.5,-3.8 6.8,-7.6 10.1,-11.6 3.2,-3.9 6.4,-8 9.5,-12.1 3.1,-4.1 6,-8.3 8.9,-12.6 2.9,-4.2 5.7,-8.5 8.3,-13 2.7,-4.4 5.3,-8.8 7.8,-13.4 2.4,-4.5 4.8,-9.1 7,-13.8 2.3,-4.6 4.4,-9.4 6.4,-14.2 0.3,-0.7 0.6,-1.4 0.9,-2.1 L 321.1,324.2 25.31,446.7 z"
       id="path4009"
       style="fill:#ffffff;stroke:none" />
    <path
       d="m 321.2,4 c -5.5,0 -11,0.13 -16.5,0.406 -5.4,0.277 -10.9,0.704 -16.2,1.25 -5.4,0.547 -10.8,1.221 -16.1,2.032 -5.3,0.81 -10.5,1.745 -15.7,2.812 -5.2,1.07 -10.4,2.28 -15.5,3.59 -5.1,1.32 -10.2,2.76 -15.2,4.32 -5,1.56 -10,3.23 -14.9,5.03 -4.9,1.79 -9.7,3.69 -14.5,5.72 -4.8,2.02 -9.5,4.18 -14.2,6.43 -4.7,2.25 -9.3,4.6 -13.8,7.07 -4.5,2.46 -9,5.04 -13.4,7.72 -4.4,2.67 -8.8,5.43 -13,8.31 -4.3,2.88 -8.5,5.86 -12.6,8.93 -4.1,3.08 -8.1,6.24 -12.1,9.5 -3.9,3.27 -7.8,6.62 -11.6,10.07 -3.8,3.44 -7.47,7 -11.09,10.62 -3.62,3.59 -7.18,7.29 -10.62,11.09 -3.45,3.8 -6.8,7.7 -10.07,11.6 -3.26,4 -6.42,8 -9.5,12.1 -3.07,4.1 -6.05,8.3 -8.93,12.6 -2.88,4.2 -5.64,8.6 -8.31,13 -2.68,4.4 -5.26,8.9 -7.72,13.4 -2.47,4.5 -4.82,9.1 -7.07,13.8 -2.25,4.7 -4.41,9.4 -6.43,14.2 -2.03,4.8 -3.93,9.6 -5.72,14.5 -1.8,4.9 -3.47,9.9 -5.03,14.9 -1.56,5 -3,10.1 -4.32,15.2 -1.313,5.1 -2.523,10.3 -3.59,15.5 -1.067,5.2 -2.002,10.4 -2.812,15.7 -0.811,5.3 -1.485,10.7 -2.032,16.1 -0.546,5.3 -0.973,10.8 -1.25,16.2 C 1.13,313.2 1,318.7 1,324.2 c 0,5.5 0.13,11 0.406,16.5 0.277,5.4 0.704,10.9 1.25,16.2 0.547,5.4 1.221,10.8 2.032,16.1 0.81,5.3 1.745,10.5 2.812,15.7 1.067,5.2 2.277,10.4 3.59,15.5 1.32,5.1 2.76,10.2 4.32,15.2 1.56,5 3.23,10 5.03,14.9 1.53,4.2 3.18,8.3 4.87,12.4 L 321.2,324.2 321.2,4 z"
       id="path4062"
       style="fill:#ff0000;stroke:none" />
    <path
       d="m 617.1,446.7 c 1.7,-4.1 3.3,-8.2 4.9,-12.4 1.8,-4.9 3.4,-9.9 5,-14.9 1.6,-5 3,-10.1 4.3,-15.2 1.3,-5.1 2.5,-10.3 3.6,-15.5 1.1,-5.2 2,-10.4 2.8,-15.7 0.8,-5.3 1.5,-10.7 2.1,-16.1 0.5,-5.3 0.9,-10.8 1.2,-16.2 0.2,-5.5 0.4,-11 0.4,-16.5 0,-5.5 -0.2,-11 -0.4,-16.5 -0.3,-5.4 -0.7,-10.8 -1.2,-16.2 -0.6,-5.4 -1.3,-10.8 -2.1,-16.1 -0.8,-5.3 -1.7,-10.5 -2.8,-15.7 -1.1,-5.3 -2.3,-10.4 -3.6,-15.5 -1.3,-5.1 -2.7,-10.2 -4.3,-15.2 -1.6,-5 -3.2,-10 -5,-14.9 -1.8,-4.9 -3.8,-9.7 -5.8,-14.5 -2,-4.8 -4.1,-9.6 -6.4,-14.2 -2.2,-4.7 -4.6,-9.3 -7,-13.8 -2.5,-4.6 -5.1,-9 -7.8,-13.4 -2.6,-4.4 -5.4,-8.8 -8.3,-13 -2.9,-4.3 -5.8,-8.5 -8.9,-12.6 -3.1,-4.1 -6.3,-8.1 -9.5,-12.1 -3.3,-3.9 -6.6,-7.8 -10.1,-11.6 -3.4,-3.8 -7,-7.5 -10.6,-11.12 -3.6,-3.62 -7.3,-7.15 -11.1,-10.59 -3.8,-3.45 -7.7,-6.8 -11.6,-10.07 -4,-3.26 -8,-6.42 -12.1,-9.5 -4.2,-3.07 -8.3,-6.06 -12.6,-8.93 -4.2,-2.88 -8.6,-5.67 -13,-8.35 -4.4,-2.67 -8.9,-5.22 -13.4,-7.68 -4.5,-2.47 -9.1,-4.85 -13.8,-7.1 -4.7,-2.25 -9.4,-4.38 -14.2,-6.4 -4.8,-2.03 -9.6,-3.93 -14.5,-5.72 -4.9,-1.8 -9.9,-3.47 -14.9,-5.03 -5,-1.56 -10.1,-3 -15.2,-4.32 C 396.1,12.78 390.9,11.57 385.7,10.5 380.5,9.434 375.3,8.497 370,7.688 364.7,6.878 359.3,6.203 353.9,5.656 348.6,5.11 343.1,4.683 337.7,4.406 332.2,4.13 326.7,4 321.2,4 l 0,320.2 295.9,122.5 z"
       id="path4052"
       style="fill:#00ff00;stroke:none" />
    <path
       d="m 310.9,432 c 0,0 -8.6,-11.8 -8.6,-36.6 0,-25 0,-112.2 0,-112.2 0,0 1.6,-46.2 18.6,-66.8 l 0.6,0 c 17,20.6 18.6,66.8 18.6,66.8 0,0 0,87.2 0,112.2 0,24.8 -8.6,36.6 -8.6,36.6 z"
       id="path2996-1"
       style="fill:#000000;fill-opacity:0.3854;stroke:#000000;stroke-width:2;stroke-linecap:butt;stroke-linejoin:miter;stroke-miterlimit:4;stroke-opacity:1;stroke-dasharray:none" />
    <path
       d="M 641.4,324.2 C 641.4,501 498,644.5 321.2,644.5 144.4,644.5 1,501 1,324.2 1,147.4 144.4,4 321.2,4 498,4 641.4,147.4 641.4,324.2 z"
       id="path3017"
       style="color:#000000;fill:none;stroke:#000000;stroke-width:3;stroke-linecap:butt;stroke-linejoin:miter;stroke-miterlimit:4;stroke-opacity:1;stroke-dasharray:none;stroke-dashoffset:0;marker:none;visibility:visible;display:inline;overflow:visible;enable-background:accumulate" />
  </g>
</svg>
